<?xml version="1.0" encoding="UTF-8"?>
<svg id="_레이어_2" data-name="레이어 2" xmlns="http://www.w3.org/2000/svg" viewBox="0 0 96.34 112.59">
  <defs>
    <style>
      .cls-1 {
        fill: #3d3d3d;
      }

      .cls-2 {
        fill: #962f2f;
      }

      .cls-3 {
        fill: #d34242;
      }

      .cls-4 {
        fill: #ffa4a4;
        stroke-linecap: round;
        stroke-linejoin: round;
      }

      .cls-4, .cls-5 {
        stroke: #3d3d3d;
        stroke-width: 2px;
      }

      .cls-5 {
        fill: #fff;
        stroke-miterlimit: 10;
      }
    </style>
  </defs>
  <g id="_레이어_1-2" data-name="레이어 1">
    <g>
      <path class="cls-3" d="M73.22,111.85l-29.89-23.07c-1.76-1.36-4.21-1.36-5.97,0L7.46,111.85c-3.26,2.02-7.46-.32-7.46-4.16V4.89C0,2.19,2.19,0,4.89,0H80.68V107.7c0,3.83-4.21,6.17-7.46,4.16Z"/>
      <path class="cls-2" d="M80.68,0l14.22,14.22c3.08,3.08,.9,8.35-3.46,8.35h-10.76V0Z"/>
      <g>
        <g>
          <ellipse class="cls-5" cx="30.45" cy="32.9" rx="9.55" ry="17.31"/>
          <ellipse class="cls-1" cx="33.55" cy="32.9" rx="6.32" ry="9.6"/>
        </g>
        <g>
          <ellipse class="cls-5" cx="50.23" cy="32.9" rx="9.55" ry="17.31"/>
          <ellipse class="cls-1" cx="53.33" cy="32.9" rx="6.32" ry="9.6"/>
        </g>
      </g>
      <path class="cls-4" d="M26.63,59.97c7.92-1.58,15.97-2.53,24.04-2.84,1.05-.04,2.25-.01,2.95,.77,.48,.52,.6,1.27,.71,1.97,.41,2.65,.81,5.44-.16,7.94-1.01,2.6-3.4,4.47-5.98,5.52-4.33,1.77-9.44,1.49-13.55-.73s-7.14-6.35-8.03-10.94l.02-1.69Z"/>
    </g>
  </g>
</svg>